# xmcd
#
# Track frame offsets: 
#        150
#        9435
#        17685
#        26565
#        33892
#        45213
#        49829
#        54850
#        77140
#        84367
#        98196
#        108112
#        117809
#        136642
#        142901
#        157439
#        169229
#
# Disc length: 3074 seconds
#
# Revision: 0
# Processed by: cddbd v1.5.2PL0 Copyright (c) Steve Scherf et al.
# Submitted via: ExactAudioCopy v1.0b3
#
DISCID=c20c0011
DTITLE=Farbror Arnes blockflöjtsensemble - Farbrorns förlovade land
DYEAR=2018
DGENRE=Rock
TTITLE0=Extrainsatt styrelsemöte på fekalieinspektionen, part 3 - kaffe
TTITLE1=Balladen om jätteballen
TTITLE2=I huvudet på en treårig mördare
TTITLE3=Jag vill äta upp Peter Harryson
TTITLE4=Bajsa på pappa
TTITLE5=Lille Sergio
TTITLE6=Klackan, pappan och dvärgen
TTITLE7=Godnattvisan
TTITLE8=Bajsa och fisa på Mona Lisa (DH Pamoash)
TTITLE9=Stjärtplågeri på hospitalet
TTITLE10=Kan du bajsa?
TTITLE11=Blåkuks-Ullas sabbade sabbat
TTITLE12=Dagcenter dance (Onkel Kånkel)
TTITLE13=Alla barnen, utom Peter
TTITLE14=Anarchy in Ölme
TTITLE15=Kvällens sista dans
TTITLE16=Bonusspår
EXTD=
EXTT0=
EXTT1=
EXTT2=
EXTT3=
EXTT4=
EXTT5=
EXTT6=
EXTT7=
EXTT8=
EXTT9=
EXTT10=
EXTT11=
EXTT12=
EXTT13=
EXTT14=
EXTT15=
EXTT16=
PLAYORDER=
